<svg width="98" height="77" viewBox="0 0 98 77" fill="none" xmlns="http://www.w3.org/2000/svg">
<path d="M49 41C44.578 41 41 44.584 41 49C41 53.416 44.578 57 49 57C53.422 57 57 53.416 57 49C57 44.582 53.422 41 49 41Z" stroke="#009EFF" stroke-width="2" stroke-miterlimit="10" stroke-linecap="round" stroke-linejoin="round"/>
<path d="M88.918 75.676C91.6312 71.6201 93.7436 67.129 95.1273 62.328C96.3466 58.0974 97 53.6261 97 49C97 47.8796 96.9617 46.7682 96.8863 45.667C96.6505 42.2206 96.0515 38.8746 95.1273 35.667C94.6352 33.9592 94.051 32.2906 93.3803 30.667C93.0309 29.8212 92.6581 28.9876 92.2626 28.167C91.6019 26.7961 90.8779 25.4615 90.0945 24.167C81.6881 10.2761 66.4362 1 49 1C22.472 1 1 22.472 1 49C1 58.872 3.976 68.042 9.074 75.664" stroke="#999999" stroke-width="2" stroke-miterlimit="10" stroke-linecap="round" stroke-linejoin="round"/>
<path d="M85 71.6386C85.3466 71.1269 85.6817 70.607 86.0049 70.0792C86.5899 69.124 87.1362 68.1431 87.6415 67.1386C88.2931 65.8431 88.8766 64.5083 89.3874 63.1386C89.7251 62.2331 90.031 61.3123 90.3038 60.3776C90.5665 59.4771 90.7985 58.5637 90.9985 57.6386C91.1768 56.8143 91.3296 55.9807 91.4562 55.1386C91.6144 54.0866 91.7316 53.0214 91.8063 51.9444C91.8707 51.0158 91.9034 50.0785 91.9034 49.1335M88.8116 33.667C89.3844 35.0368 89.8835 36.4444 90.3038 37.8852C90.5665 38.786 90.7985 39.6997 90.9985 40.6252C91.2128 41.6166 91.3904 42.6216 91.5298 43.6386" stroke="#009EFF" stroke-width="2" stroke-miterlimit="10" stroke-linecap="round" stroke-linejoin="round"/>
<path d="M79.6216 19.6035C80.6246 20.6982 81.5709 21.8537 82.4544 23.0669C83.0068 23.8254 83.5346 24.6065 84.0363 25.4095C84.5737 26.2698 85.0812 27.1552 85.5569 28.0648" stroke="#009EFF" stroke-width="2" stroke-miterlimit="10" stroke-linecap="round" stroke-linejoin="round"/>
<path d="M44.3804 42.4567L76.9891 26.6958L54.7065 54.6849" stroke="#009EFF" stroke-width="2"/>
</svg>
