<svg width="104" height="171" viewBox="0 0 104 171" fill="none" xmlns="http://www.w3.org/2000/svg">
<path d="M31.2246 166C33.4206 166 34.6986 164.686 34.6986 162.76C34.6986 161.32 33.6366 160.006 32.3586 159.808C33.4566 159.574 34.4646 158.566 34.4646 157.054C34.4646 155.254 33.1866 153.994 31.0986 153.994H25.7526V166H31.2246ZM30.8466 159.196H27.2466V155.326H30.8466C32.1966 155.326 32.9166 156.19 32.9166 157.27C32.9166 158.368 32.1966 159.196 30.8466 159.196ZM30.9186 164.668H27.2466V160.528H30.9186C32.3946 160.528 33.1506 161.5 33.1506 162.598C33.1506 163.876 32.3226 164.668 30.9186 164.668ZM43.8049 166V160.024C43.8049 157.918 42.2749 157.09 40.4389 157.09C39.0169 157.09 37.9009 157.558 36.9649 158.53L37.5949 159.466C38.3689 158.638 39.2149 158.26 40.2589 158.26C41.5189 158.26 42.4549 158.926 42.4549 160.096V161.662C41.7529 160.852 40.7629 160.474 39.5749 160.474C38.0989 160.474 36.5329 161.392 36.5329 163.336C36.5329 165.226 38.0989 166.216 39.5749 166.216C40.7449 166.216 41.7349 165.802 42.4549 165.01V166H43.8049ZM40.0609 165.244C38.8009 165.244 37.9189 164.452 37.9189 163.354C37.9189 162.238 38.8009 161.446 40.0609 161.446C41.0149 161.446 41.9329 161.806 42.4549 162.526V164.164C41.9329 164.884 41.0149 165.244 40.0609 165.244ZM48.7071 166.216C49.4991 166.216 49.9851 165.982 50.3271 165.658L49.9311 164.65C49.7511 164.848 49.3911 165.01 49.0131 165.01C48.4191 165.01 48.1311 164.542 48.1311 163.894V158.494H49.8951V157.306H48.1311V154.93H46.7811V157.306H45.3411V158.494H46.7811V164.182C46.7811 165.478 47.4291 166.216 48.7071 166.216ZM53.9981 166.216C54.7901 166.216 55.2761 165.982 55.6181 165.658L55.2221 164.65C55.0421 164.848 54.6821 165.01 54.3041 165.01C53.7101 165.01 53.4221 164.542 53.4221 163.894V158.494H55.1861V157.306H53.4221V154.93H52.0721V157.306H50.6321V158.494H52.0721V164.182C52.0721 165.478 52.7201 166.216 53.9981 166.216ZM61.0172 166.216C62.4392 166.216 63.6092 165.748 64.4732 164.884L63.8252 164.002C63.1412 164.704 62.1332 165.1 61.1432 165.1C59.2712 165.1 58.1192 163.732 58.0112 162.094H65.0492V161.752C65.0492 159.142 63.5012 157.09 60.8732 157.09C58.3892 157.09 56.5892 159.124 56.5892 161.644C56.5892 164.362 58.4432 166.216 61.0172 166.216ZM63.7172 161.104H58.0112C58.0832 159.772 59.0012 158.206 60.8552 158.206C62.8352 158.206 63.6992 159.808 63.7172 161.104ZM68.5857 166V159.844C68.9817 159.142 70.1157 158.458 70.9437 158.458C71.1597 158.458 71.3217 158.476 71.4837 158.512V157.126C70.2957 157.126 69.2877 157.792 68.5857 158.71V157.306H67.2357V166H68.5857ZM72.6911 169.402C72.9431 169.474 73.3931 169.528 73.6811 169.528C74.8331 169.51 75.7151 169.024 76.2371 167.764L80.5931 157.306H79.1171L76.2371 164.434L73.3391 157.306H71.8811L75.5171 166.09L74.9411 167.404C74.6351 168.124 74.2391 168.322 73.6451 168.322C73.4291 168.322 73.1051 168.268 72.9071 168.178L72.6911 169.402Z" fill="#999999"/>
<path d="M13.5841 138.42C17.8891 138.42 21.4591 135.55 21.4591 130.895C21.4591 126.03 17.9241 123.44 14.0041 123.44C11.5891 123.44 9.59414 124.49 8.43914 125.61V116.475H19.9191V114.655H6.44414V126.905L7.94914 127.535C9.66414 125.96 11.4841 125.26 13.6191 125.26C16.9791 125.26 19.4291 127.43 19.4291 130.965C19.4291 134.15 16.9441 136.6 13.5841 136.6C10.5741 136.6 8.54414 135.41 7.03914 133.275L5.70914 134.605C7.31914 136.915 9.69914 138.42 13.5841 138.42ZM33.9552 138.42C38.2602 138.42 41.8302 135.55 41.8302 130.895C41.8302 126.03 38.2952 123.44 34.3752 123.44C31.9602 123.44 29.9652 124.49 28.8102 125.61V116.475H40.2902V114.655H26.8152V126.905L28.3202 127.535C30.0352 125.96 31.8552 125.26 33.9902 125.26C37.3502 125.26 39.8002 127.43 39.8002 130.965C39.8002 134.15 37.3152 136.6 33.9552 136.6C30.9452 136.6 28.9152 135.41 27.4102 133.275L26.0802 134.605C27.6902 136.915 30.0702 138.42 33.9552 138.42ZM51.7363 138V114.655H49.9163L44.7713 120.08L45.9963 121.375L49.7413 117.385V138H51.7363ZM77.6579 138L84.3079 114.655H82.0679L76.4329 135.2L70.7279 114.655H68.9079L63.1679 135.2L57.5329 114.655H55.2929L61.9779 138H64.2179L69.8179 117.945L75.4179 138H77.6579ZM101.044 138V126.1C101.044 122.285 99.1545 120.675 95.7245 120.675C93.2745 120.675 90.8595 122.18 89.6345 123.65V114.655H87.8145V138H89.6345V125.225C90.7195 123.685 92.9595 122.32 95.1295 122.32C97.5795 122.32 99.2245 123.23 99.2245 126.485V138H101.044Z" fill="url(#paint0_linear_125_989)"/>
<g clip-path="url(#clip0_125_989)">
<path d="M43.68 6.24017L43.68 12.4802L35.36 12.4802C30.7653 12.4802 27.04 16.2054 27.04 20.8002L27.04 87.3602C27.04 91.9549 30.7653 95.6802 35.36 95.6802L68.64 95.6802C73.2348 95.6802 76.96 91.9549 76.96 87.3602L76.96 20.8002C76.96 16.2054 73.2348 12.4802 68.64 12.4802L60.32 12.4802L60.32 6.24017L43.68 6.24017Z" stroke="#999999" stroke-width="2" stroke-miterlimit="10" stroke-linecap="round" stroke-linejoin="round"/>
<path d="M53.1698 75.2937C53.3732 75.7412 53.8717 75.9745 54.3456 75.844C54.8195 75.7135 55.1283 75.258 55.0741 74.7695L53.1174 57.1599L60.3202 57.1599C60.6602 57.1599 60.9769 56.9871 61.161 56.7013C61.345 56.4154 61.3712 56.0556 61.2305 55.7461L50.8305 32.8661C50.6271 32.4186 50.1287 32.1853 49.6548 32.3158C49.1808 32.4462 48.872 32.9018 48.9263 33.3903L50.8829 50.9999L43.6802 50.9999C43.3402 50.9999 43.0235 51.1726 42.8394 51.4585C42.6553 51.7444 42.6291 52.1042 42.7698 52.4137L53.1698 75.2937Z" stroke="#009EFF" stroke-width="2" stroke-linejoin="round"/>
<path d="M32 22V52" stroke="#009EFF" stroke-width="2" stroke-linecap="round"/>
<path d="M32 58V69" stroke="#009EFF" stroke-width="2" stroke-linecap="round"/>
</g>
<defs>
<linearGradient id="paint0_linear_125_989" x1="53.5" y1="106" x2="53.5" y2="149" gradientUnits="userSpaceOnUse">
<stop stop-color="#009EFF"/>
<stop offset="1" stop-color="#007BCD"/>
</linearGradient>
<clipPath id="clip0_125_989">
<rect width="104" height="104" fill="white" transform="translate(0 104) rotate(-90)"/>
</clipPath>
</defs>
</svg>
