<svg width="174" height="51" viewBox="0 0 174 51" fill="none" xmlns="http://www.w3.org/2000/svg">
<g opacity="0.2" clip-path="url(#clip0_136_6967)">
<path d="M33.2136 0C29.8488 0 27.0923 2.74135 27.0923 6.08777C27.0923 9.4342 29.8488 12.1138 33.2136 12.1138C36.5784 12.1138 39.2727 9.4342 39.2727 6.08777C39.2727 2.74135 36.5784 0 33.2136 0ZM8.16992 13.4968C7.15178 13.4968 6.33231 14.3118 6.33231 15.3244C6.33231 16.337 7.15178 17.152 8.16992 17.152H28.1353C28.8182 17.1149 30.8048 17.2754 31.6988 18.4238C32.6424 19.6463 32.2079 21.7826 31.6988 23.3509C31.6988 23.3509 25.9004 41.8365 25.4658 43.2195C24.547 46.1708 21.6664 48.023 18.8976 46.8129C16.613 45.8127 16.464 43.6517 17.2338 41.5524C17.3331 41.2931 17.4573 41.1079 17.5691 40.8856C17.5691 40.8856 22.5356 31.5873 23.6282 28.9941C24.4353 27.0924 23.3923 25.7835 20.8966 25.7835H9.54813C8.52999 25.7835 7.71052 26.5985 7.71052 27.6111C7.71052 28.6236 8.52999 29.4386 9.54813 29.4386H12.7764C13.4593 29.4016 15.4955 29.488 16.2778 30.7105C17.7429 32.9826 16.7372 33.7235 14.5519 41.2808C14.4153 41.6759 14.2912 42.0834 14.2167 42.5033C14.2167 42.5033 12.7143 47.7884 17.4946 49.9741C21.9148 51.9869 27.0427 49.8382 28.5699 45.047C29.6377 41.6759 35.1878 24.4622 35.1878 24.4622C36.3177 20.9553 36.1314 18.1522 34.5794 16.1641C32.4314 13.4227 28.5947 13.4845 28.0111 13.5092H8.16992V13.4968ZM1.83761 19.5352C0.819474 19.5352 0 20.3502 0 21.3628C0 22.3753 0.819474 23.2397 1.83761 23.2397H25.3168C26.335 23.2397 27.1544 22.3753 27.1544 21.3628C27.1544 20.3502 26.335 19.5352 25.3168 19.5352H1.83761Z" fill="white"/>
<path d="M60.4836 12.012C57.6306 12.012 52.5518 12.3602 52.5518 15.0733C52.5518 19.0231 61.0985 19.0591 61.0985 21.3161C61.0985 22.0004 60.3852 22.6126 58.7866 22.6126C56.5485 22.6126 55.2818 22.4806 53.2159 22.1324C52.3428 21.9883 52.0476 23.6691 52.7732 23.8492C54.1259 24.1973 56.241 24.4974 60.0532 24.4974C62.9062 24.4974 67.8743 23.9932 67.8743 21.268C67.8743 17.3183 59.3891 17.2943 59.3891 15.1934C59.3891 14.5091 60.1024 13.8968 61.701 13.8968H67.0996C68.194 13.8968 68.194 12.012 67.0996 12.012H60.4836V12.012ZM80.7127 12.012C77.6138 12.012 72.3874 12.1921 72.3874 16.3699V20.1876C72.3874 24.3774 77.6138 24.5455 80.7127 24.5455C83.9961 24.5455 85.7546 24.2453 87.1073 23.8972C87.8451 23.7171 87.5377 22.0244 86.6646 22.1804C84.5986 22.5286 83.3443 22.6606 81.0939 22.6606C79.0034 22.6606 78.45 22.1924 78.45 20.9439V19.4913C78.45 18.999 78.573 18.903 79.114 18.903H83.3566C84.1805 18.903 84.1805 17.2943 83.3566 17.2943H79.114C78.573 17.2943 78.45 17.1983 78.45 16.706V15.6256C78.45 14.365 79.0034 13.9088 81.0939 13.9088H86.4432C87.5377 13.9088 87.5377 12.024 86.4432 12.024H80.7127V12.012ZM99.835 12.012C96.7361 12.012 91.5097 12.1921 91.5097 16.3699V20.3556C91.5097 24.2453 96.5147 24.4494 99.6137 24.4494C102.245 24.4494 107.988 24.3174 107.988 20.6798V19.4913C107.988 18.0026 106.992 17.6064 105.012 17.6064H100.659C100.069 17.6064 100.069 19.2151 100.659 19.2151H101.987C102.528 19.2151 102.59 19.3232 102.59 19.8034V20.8238C102.59 22.0844 101.397 22.7567 99.6137 22.7567C97.8306 22.7567 97.1911 22.0724 97.1911 20.8238V15.6016C97.1911 14.341 98.1257 13.8848 100.216 13.8848H105.566C106.66 13.8848 106.66 12 105.566 12H99.835V12.012ZM111.345 12.012C110.595 12.012 110.607 12.3121 110.792 12.9244L113.989 22.3965C114.42 23.561 115.354 24.3294 117.187 24.3294C119.019 24.3294 119.892 23.549 120.322 22.5046C120.322 22.5046 121.589 18.807 121.81 18.1467C121.958 17.6905 122.327 17.6905 122.474 18.1467C122.659 18.7109 123.913 22.3965 123.913 22.3965C124.528 23.6211 125.18 24.3294 127.049 24.3294C129.25 24.3294 130.209 23.453 130.578 22.3965C130.812 21.7362 132.509 16.0818 133.554 12.8164C133.763 12.1801 133.702 12.012 133.112 12.012H131.181C130.578 14.0049 128.721 19.9955 128.648 20.2476C128.512 20.7038 128.168 20.6918 127.984 20.2476C127.861 19.9355 125.782 14.389 125.45 13.5247C125.106 12.6603 124.159 12.024 123.077 12.024C122.105 12.024 121.195 12.5402 120.876 13.5247C120.556 14.5091 118.81 19.9835 118.724 20.2476C118.588 20.7038 118.207 20.7038 118.06 20.2476C117.961 19.9715 116.067 13.9208 115.465 12.012H111.345V12.012ZM145.237 12.012C142.236 12.012 137.465 11.988 137.465 15.6136V23.1408C137.465 23.8972 138.043 24.3294 139.998 24.3294C141.953 24.3294 142.531 23.8011 142.531 23.1408V19.6953C142.531 19.2031 142.654 19.1071 143.195 19.1071H147.167C147.708 19.1071 147.831 19.2151 147.831 19.6953V23.1408C147.831 23.8011 148.409 24.3294 150.365 24.3294C152.32 24.3294 152.898 23.9092 152.898 23.1408V15.6136C152.898 11.988 148.237 12.012 145.237 12.012ZM156.206 12.012C155.714 12.012 155.505 12.3722 155.874 12.8164C157.116 14.329 160.03 17.8946 160.227 18.1467C160.473 18.4468 160.83 18.867 160.83 19.3352V23.1529C160.83 23.8131 161.469 24.3414 163.424 24.3414C165.38 24.3414 166.068 23.9212 166.068 23.1529V19.011C166.068 18.5188 166.4 18.2547 166.671 17.9306C166.868 17.6785 169.622 14.377 170.914 12.8164C171.282 12.3602 171.086 12.012 170.581 12.012H168.27C168.27 12.012 165.306 15.8057 165.072 16.1058C164.839 16.4059 164.371 16.3939 164.138 16.1058C163.904 15.8177 161.051 12.012 161.051 12.012H156.206V12.012ZM172.844 12.012C172.205 12.012 171.688 12.5282 171.688 13.1405C171.688 13.7528 172.205 14.269 172.844 14.269C173.471 14.269 174 13.7528 174 13.1405C174 12.5162 173.484 12.012 172.844 12.012ZM172.844 12.2761C173.311 12.2761 173.73 12.6843 173.73 13.1405C173.73 13.5967 173.311 13.9448 172.844 13.9448C172.377 13.9448 172.02 13.5967 172.02 13.1405C172.02 12.6843 172.377 12.2761 172.844 12.2761ZM172.352 12.7083C172.315 12.7083 172.303 12.7203 172.303 12.7563V13.4526C172.303 13.5007 172.34 13.5007 172.463 13.5007C172.598 13.5007 172.623 13.4886 172.623 13.4526V12.8644C172.623 12.8284 172.635 12.8164 172.672 12.8164H172.832C172.943 12.8164 172.992 12.8764 172.992 12.9244C172.992 13.0084 172.856 13.0324 172.721 13.0324H172.672C172.611 13.0324 172.623 13.2125 172.672 13.2485C172.807 13.3566 172.93 13.4646 173.004 13.5127C173.029 13.5367 173.078 13.5127 173.115 13.5127H173.447C173.484 13.5127 173.484 13.4886 173.447 13.4646L173.004 13.1405C173.115 13.1405 173.447 13.1525 173.447 12.9244C173.447 12.7683 173.238 12.7083 172.955 12.7083H172.352V12.7083ZM145.237 13.6207C147.266 13.6207 147.831 14.1489 147.831 15.3975V16.8981C147.831 17.4264 147.721 17.4864 147.229 17.4864H143.208C142.667 17.4864 142.544 17.3783 142.544 16.8981V15.3975C142.544 14.1489 143.208 13.6207 145.237 13.6207Z" fill="white"/>
<path d="M58.4833 30.2614C57.6433 30.2614 56.9997 30.5177 56.5524 31.0305C56.1051 31.5432 55.8815 32.2686 55.8815 33.2068C55.8815 34.1559 56.1269 34.8868 56.6179 35.3996C57.1197 35.9123 57.7906 36.1686 58.6306 36.1686C59.0779 36.1686 59.4542 36.1086 59.7597 35.9886C60.076 35.8686 60.376 35.7323 60.6597 35.5796C60.8451 35.7323 60.9869 35.9177 61.0851 36.1359C61.1942 36.3432 61.2488 36.5886 61.2488 36.8723C61.2488 37.3196 60.9979 37.7014 60.496 38.0177C60.0051 38.3232 59.2524 38.4759 58.2379 38.4759C57.5069 38.4759 56.8197 38.3723 56.176 38.165C55.5324 37.9577 54.9706 37.6414 54.4906 37.2159C54.0106 36.7796 53.6288 36.2341 53.3451 35.5796C53.0724 34.9141 52.936 34.1232 52.936 33.2068C52.936 32.3559 53.0669 31.6086 53.3288 30.965C53.6015 30.3105 53.9669 29.7596 54.4251 29.3123C54.8942 28.865 55.4397 28.5268 56.0615 28.2977C56.6833 28.0686 57.3488 27.9541 58.0579 27.9541C59.0615 27.9541 59.836 28.1177 60.3815 28.445C60.9379 28.7723 61.216 29.1923 61.216 29.705C61.216 29.9886 61.1451 30.2341 61.0033 30.4414C60.8615 30.6486 60.6979 30.8123 60.5124 30.9323C60.2288 30.7468 59.9233 30.5886 59.596 30.4577C59.2797 30.3268 58.9088 30.2614 58.4833 30.2614Z" fill="white"/>
<path d="M65.1259 28.5596C65.3114 28.4505 65.5896 28.3468 65.9605 28.2486C66.3423 28.1505 66.7241 28.1014 67.1059 28.1014C67.6514 28.1014 68.1314 28.1832 68.5459 28.3468C68.9714 28.4996 69.2441 28.745 69.3641 29.0832C69.5605 29.6505 69.7732 30.3105 70.0023 31.0632C70.2314 31.8159 70.4605 32.5959 70.6896 33.4032C70.9186 34.1996 71.1423 34.9905 71.3605 35.7759C71.5786 36.5505 71.7696 37.2377 71.9332 37.8377C71.8023 37.9905 71.6059 38.1105 71.3441 38.1977C71.0823 38.2959 70.7714 38.345 70.4114 38.345C70.1496 38.345 69.9259 38.3232 69.7405 38.2796C69.5659 38.2359 69.4186 38.1705 69.2986 38.0832C69.1896 37.9959 69.0968 37.8814 69.0205 37.7396C68.955 37.5977 68.895 37.4341 68.8405 37.2486L68.5459 36.1196H65.5841C65.4968 36.4468 65.4096 36.785 65.3223 37.1341C65.235 37.4832 65.1477 37.8214 65.0605 38.1486C64.9077 38.2032 64.7441 38.2468 64.5696 38.2796C64.4059 38.3232 64.2041 38.345 63.9641 38.345C63.4077 38.345 62.9932 38.2523 62.7205 38.0668C62.4586 37.8705 62.3277 37.6032 62.3277 37.265C62.3277 37.1123 62.3496 36.9596 62.3932 36.8068C62.4368 36.6541 62.4859 36.4741 62.5405 36.2668C62.6168 35.9723 62.7205 35.6068 62.8514 35.1705C62.9932 34.7341 63.1459 34.265 63.3096 33.7632C63.4732 33.2505 63.6477 32.7268 63.8332 32.1923C64.0186 31.6577 64.1932 31.1559 64.3568 30.6868C64.5205 30.2068 64.6677 29.7814 64.7986 29.4105C64.9405 29.0396 65.0496 28.7559 65.1259 28.5596ZM67.0896 30.6705C66.9368 31.1286 66.7623 31.6414 66.5659 32.2086C66.3805 32.765 66.2114 33.3323 66.0586 33.9105H68.0877C67.935 33.3214 67.7768 32.7486 67.6132 32.1923C67.4605 31.625 67.3186 31.1177 67.1877 30.6705H67.0896Z" fill="white"/>
<path d="M74.7961 38.2305C74.327 38.2305 73.9561 38.0941 73.6833 37.8214C73.4106 37.5486 73.2742 37.1777 73.2742 36.7086V28.2486C73.3942 28.2268 73.5852 28.1996 73.847 28.1668C74.1088 28.1232 74.3597 28.1014 74.5997 28.1014C74.8506 28.1014 75.0688 28.1232 75.2542 28.1668C75.4506 28.1996 75.6142 28.265 75.7452 28.3632C75.8761 28.4614 75.9742 28.5977 76.0397 28.7723C76.1052 28.9468 76.1379 29.1759 76.1379 29.4596V35.9232H79.8852C79.9615 36.0432 80.0324 36.2068 80.0979 36.4141C80.1633 36.6105 80.1961 36.8177 80.1961 37.0359C80.1961 37.4723 80.1033 37.7832 79.9179 37.9686C79.7324 38.1432 79.487 38.2305 79.1815 38.2305H74.7961Z" fill="white"/>
<path d="M84.5274 38.1159C84.4074 38.1486 84.2165 38.1814 83.9547 38.2141C83.7038 38.2468 83.4529 38.2632 83.202 38.2632C82.9511 38.2632 82.7274 38.2414 82.5311 38.1977C82.3456 38.165 82.1874 38.0996 82.0565 38.0014C81.9256 37.9032 81.8274 37.7668 81.762 37.5923C81.6965 37.4177 81.6638 37.1886 81.6638 36.905V28.265C81.7838 28.2432 81.9747 28.2159 82.2365 28.1832C82.4984 28.1396 82.7493 28.1177 82.9893 28.1177C83.2402 28.1177 83.4584 28.1396 83.6438 28.1832C83.8402 28.2159 84.0038 28.2814 84.1347 28.3796C84.2656 28.4777 84.3638 28.6141 84.4293 28.7886C84.4947 28.9632 84.5274 29.1923 84.5274 29.4759V38.1159Z" fill="white"/>
<path d="M93.6205 28.265C93.6969 28.385 93.7623 28.5486 93.8169 28.7559C93.8823 28.9523 93.9151 29.1596 93.9151 29.3777C93.9151 29.8032 93.8223 30.1086 93.6369 30.2941C93.4623 30.4686 93.2223 30.5559 92.9169 30.5559H89.4805V32.405H93.0641C93.1514 32.525 93.2223 32.6832 93.2769 32.8796C93.3423 33.0759 93.3751 33.2832 93.3751 33.5014C93.3751 33.9159 93.2823 34.2159 93.0969 34.4014C92.9223 34.5759 92.6823 34.6632 92.3769 34.6632H89.5132V38.1159C89.3932 38.1486 89.2023 38.1814 88.9405 38.2141C88.6896 38.2468 88.4387 38.2632 88.1878 38.2632C87.9369 38.2632 87.7132 38.2414 87.5169 38.1977C87.3314 38.165 87.1732 38.0996 87.0423 38.0014C86.9114 37.9032 86.8132 37.7668 86.7478 37.5923C86.6823 37.4177 86.6496 37.1886 86.6496 36.905V29.7868C86.6496 29.3177 86.786 28.9468 87.0587 28.6741C87.3314 28.4014 87.7023 28.265 88.1714 28.265H93.6205Z" fill="white"/>
<path d="M94.772 33.2068C94.772 32.3559 94.9029 31.6032 95.1647 30.9486C95.4374 30.2941 95.8029 29.7486 96.2611 29.3123C96.7302 28.865 97.2756 28.5268 97.8974 28.2977C98.5302 28.0686 99.212 27.9541 99.9429 27.9541C100.674 27.9541 101.35 28.0686 101.972 28.2977C102.605 28.5268 103.156 28.865 103.625 29.3123C104.094 29.7486 104.459 30.2941 104.721 30.9486C104.994 31.6032 105.13 32.3559 105.13 33.2068C105.13 34.0577 104.999 34.8159 104.737 35.4814C104.476 36.1359 104.11 36.6868 103.641 37.1341C103.183 37.5705 102.637 37.9032 102.005 38.1323C101.372 38.3614 100.685 38.4759 99.9429 38.4759C99.2011 38.4759 98.5138 38.3614 97.8811 38.1323C97.2483 37.8923 96.7029 37.5486 96.2447 37.1014C95.7865 36.6541 95.4265 36.1032 95.1647 35.4486C94.9029 34.7941 94.772 34.0468 94.772 33.2068ZM97.7174 33.2068C97.7174 34.1996 97.9192 34.9414 98.3229 35.4323C98.7265 35.9232 99.2665 36.1686 99.9429 36.1686C100.63 36.1686 101.176 35.9232 101.579 35.4323C101.983 34.9414 102.185 34.1996 102.185 33.2068C102.185 32.225 101.983 31.4886 101.579 30.9977C101.187 30.5068 100.647 30.2614 99.9592 30.2614C99.2829 30.2614 98.7374 30.5068 98.3229 30.9977C97.9192 31.4777 97.7174 32.2141 97.7174 33.2068Z" fill="white"/>
<path d="M109.616 34.9741V38.1159C109.496 38.1486 109.305 38.1814 109.043 38.2141C108.792 38.2468 108.541 38.2632 108.29 38.2632C108.039 38.2632 107.816 38.2414 107.619 38.1977C107.434 38.165 107.276 38.0996 107.145 38.0014C107.025 37.9032 106.932 37.7668 106.867 37.5923C106.801 37.4177 106.769 37.1886 106.769 36.905V29.1977C106.769 28.9686 106.829 28.7941 106.949 28.6741C107.079 28.5432 107.254 28.4396 107.472 28.3632C107.843 28.2323 108.274 28.1396 108.765 28.085C109.256 28.0196 109.779 27.9868 110.336 27.9868C111.841 27.9868 112.976 28.3032 113.739 28.9359C114.503 29.5686 114.885 30.425 114.885 31.505C114.885 32.1814 114.71 32.7596 114.361 33.2396C114.012 33.7196 113.598 34.0905 113.118 34.3523C113.51 34.8868 113.898 35.3886 114.279 35.8577C114.661 36.3268 114.961 36.7523 115.179 37.1341C115.07 37.5159 114.869 37.8105 114.574 38.0177C114.29 38.2141 113.969 38.3123 113.609 38.3123C113.369 38.3123 113.161 38.285 112.987 38.2305C112.812 38.1759 112.659 38.0996 112.529 38.0014C112.398 37.9032 112.278 37.7832 112.169 37.6414C112.059 37.4996 111.956 37.3468 111.858 37.1832L110.483 34.9741H109.616ZM110.647 32.7977C111.061 32.7977 111.389 32.6941 111.629 32.4868C111.869 32.2686 111.989 31.9523 111.989 31.5377C111.989 31.1232 111.852 30.8123 111.579 30.605C111.318 30.3868 110.898 30.2777 110.319 30.2777C110.156 30.2777 110.025 30.2832 109.927 30.2941C109.829 30.305 109.719 30.3214 109.599 30.3432V32.7977H110.647Z" fill="white"/>
<path d="M125.724 37.8377C125.571 37.9905 125.347 38.105 125.053 38.1814C124.769 38.2686 124.426 38.3123 124.022 38.3123C123.618 38.3123 123.237 38.2523 122.877 38.1323C122.517 38.0123 122.222 37.7232 121.993 37.265L120.373 33.9596C120.209 33.6214 120.062 33.305 119.931 33.0105C119.8 32.705 119.658 32.3559 119.506 31.9632L119.407 31.9796C119.451 32.5686 119.473 33.1686 119.473 33.7796C119.484 34.3905 119.489 34.9905 119.489 35.5796V38.1159C119.369 38.1486 119.184 38.1814 118.933 38.2141C118.693 38.2468 118.453 38.2632 118.213 38.2632C117.973 38.2632 117.76 38.2468 117.575 38.2141C117.389 38.1814 117.237 38.1159 117.117 38.0177C116.997 37.9196 116.904 37.7886 116.838 37.625C116.773 37.4505 116.74 37.2268 116.74 36.9541V28.7723C116.893 28.5541 117.127 28.3905 117.444 28.2814C117.76 28.1723 118.098 28.1177 118.458 28.1177C118.862 28.1177 119.244 28.1832 119.604 28.3141C119.975 28.4341 120.269 28.7177 120.487 29.165L122.124 32.4705C122.287 32.8086 122.435 33.1305 122.566 33.4359C122.697 33.7305 122.838 34.0741 122.991 34.4668L123.073 34.4505C123.029 33.8614 123.002 33.2723 122.991 32.6832C122.98 32.0941 122.975 31.505 122.975 30.9159V28.265C123.095 28.2323 123.275 28.1996 123.515 28.1668C123.766 28.1341 124.011 28.1177 124.251 28.1177C124.731 28.1177 125.097 28.205 125.347 28.3796C125.598 28.5432 125.724 28.8923 125.724 29.4268V37.8377Z" fill="white"/>
<path d="M130.71 38.1159C130.59 38.1486 130.399 38.1814 130.137 38.2141C129.886 38.2468 129.635 38.2632 129.385 38.2632C129.134 38.2632 128.91 38.2414 128.714 38.1977C128.528 38.165 128.37 38.0996 128.239 38.0014C128.108 37.9032 128.01 37.7668 127.945 37.5923C127.879 37.4177 127.846 37.1886 127.846 36.905V28.265C127.966 28.2432 128.157 28.2159 128.419 28.1832C128.681 28.1396 128.932 28.1177 129.172 28.1177C129.423 28.1177 129.641 28.1396 129.826 28.1832C130.023 28.2159 130.186 28.2814 130.317 28.3796C130.448 28.4777 130.546 28.6141 130.612 28.7886C130.677 28.9632 130.71 29.1923 130.71 29.4759V38.1159Z" fill="white"/>
<path d="M134.943 28.5596C135.128 28.4505 135.407 28.3468 135.778 28.2486C136.159 28.1505 136.541 28.1014 136.923 28.1014C137.468 28.1014 137.948 28.1832 138.363 28.3468C138.788 28.4996 139.061 28.745 139.181 29.0832C139.378 29.6505 139.59 30.3105 139.819 31.0632C140.048 31.8159 140.278 32.5959 140.507 33.4032C140.736 34.1996 140.959 34.9905 141.178 35.7759C141.396 36.5505 141.587 37.2377 141.75 37.8377C141.619 37.9905 141.423 38.1105 141.161 38.1977C140.899 38.2959 140.588 38.345 140.228 38.345C139.967 38.345 139.743 38.3232 139.558 38.2796C139.383 38.2359 139.236 38.1705 139.116 38.0832C139.007 37.9959 138.914 37.8814 138.838 37.7396C138.772 37.5977 138.712 37.4341 138.658 37.2486L138.363 36.1196H135.401C135.314 36.4468 135.227 36.785 135.139 37.1341C135.052 37.4832 134.965 37.8214 134.878 38.1486C134.725 38.2032 134.561 38.2468 134.387 38.2796C134.223 38.3232 134.021 38.345 133.781 38.345C133.225 38.345 132.81 38.2523 132.538 38.0668C132.276 37.8705 132.145 37.6032 132.145 37.265C132.145 37.1123 132.167 36.9596 132.21 36.8068C132.254 36.6541 132.303 36.4741 132.358 36.2668C132.434 35.9723 132.538 35.6068 132.668 35.1705C132.81 34.7341 132.963 34.265 133.127 33.7632C133.29 33.2505 133.465 32.7268 133.65 32.1923C133.836 31.6577 134.01 31.1559 134.174 30.6868C134.338 30.2068 134.485 29.7814 134.616 29.4105C134.758 29.0396 134.867 28.7559 134.943 28.5596ZM136.907 30.6705C136.754 31.1286 136.579 31.6414 136.383 32.2086C136.198 32.765 136.028 33.3323 135.876 33.9105H137.905C137.752 33.3214 137.594 32.7486 137.43 32.1923C137.278 31.625 137.136 31.1177 137.005 30.6705H136.907Z" fill="white"/>
</g>
<defs>
<clipPath id="clip0_136_6967">
<rect width="174" height="50.7273" fill="white"/>
</clipPath>
</defs>
</svg>
